<svg width="25" height="25" viewBox="0 0 25 25" fill="none" xmlns="http://www.w3.org/2000/svg">
<g clip-path="url(#clip0_8_5)">
<mask id="mask0_8_5" style="mask-type:luminance" maskUnits="userSpaceOnUse" x="0" y="0" width="25" height="25">
<path d="M24.8763 0H0.123779V25H24.8763V0Z" fill="white"/>
</mask>
<g mask="url(#mask0_8_5)">
<path d="M0.123779 12C0.123779 6.34315 0.123779 3.51472 1.86374 1.75736C3.60371 0 6.40413 0 12.005 0H12.9951C18.5959 0 21.3963 0 23.1363 1.75736C24.8763 3.51472 24.8763 6.34315 24.8763 12V13C24.8763 18.6568 24.8763 21.4853 23.1363 23.2426C21.3963 25 18.5959 25 12.9951 25H12.005C6.40413 25 3.60371 25 1.86374 23.2426C0.123779 21.4853 0.123779 18.6568 0.123779 13V12Z" fill="#f5f3ff"/>
<path d="M13.2942 18.0105C7.65266 18.0105 4.43487 14.1042 4.30078 7.60425H7.1267C7.21952 12.3751 9.30281 14.3959 10.953 14.8126V7.60425H13.6139V11.7188C15.2435 11.5417 16.9553 9.66675 17.5329 7.60425H20.1939C19.7504 10.1459 17.8939 12.0209 16.5738 12.7917C17.8939 13.4167 20.0083 15.0521 20.8128 18.0105H17.8836C17.2545 16.0313 15.687 14.5001 13.6139 14.2917V18.0105H13.2942Z" fill="#975DED"/>
</g>
</g>
<defs>
<clipPath id="clip0_8_5">
<rect width="25" height="25" fill="white"/>
</clipPath>
</defs>
</svg>
